<svg width="200" height="200" viewBox="0 0 200 200" fill="none" xmlns="http://www.w3.org/2000/svg">
<path d="M42.3783 54.8848C43.015 54.8203 43.6547 54.8969 44.1513 54.9816C45.1883 55.1586 46.4168 55.522 47.5603 55.9009C49.7087 56.6126 52.4553 57.7019 53.3621 58.027L75.4482 64.7181L75.5853 64.7758C80.1243 66.6849 85.5974 67.6633 88.037 67.8208C90.4266 67.9751 95.26 67.6715 100.087 66.402L100.121 66.3922L100.155 66.3846L147.988 55.0673C149.665 54.6503 151.62 54.4419 153.298 54.5997C154.122 54.6773 155.1 54.8617 155.984 55.3172C156.809 55.7426 157.993 56.6641 158.343 58.3475L158.403 58.694L158.434 59.0385C158.521 60.7236 157.593 61.9051 157.116 62.4179C156.522 63.0557 155.79 63.5618 155.155 63.9472C153.855 64.7361 152.232 65.4471 150.906 65.9961L150.78 66.0477L150.651 66.0878L109.847 78.6234C107.31 79.4724 105.009 80.4382 103.164 81.5172C101.272 82.6231 100.117 83.6995 99.5569 84.6371C98.8678 85.7915 98.2306 87.6035 97.6869 89.999C97.1538 92.3481 96.7577 95.0419 96.4508 97.8156L96.449 97.8314L96.4472 97.8461L91.1052 142.512L91.1062 142.513C91.0137 143.349 90.7894 145.472 90.1504 147.392C89.8333 148.345 89.3287 149.52 88.4867 150.482C87.5662 151.533 86.1893 152.364 84.4409 152.231C81.0216 151.968 79.6995 148.618 79.2304 146.983C78.7386 145.268 78.5844 143.455 78.5369 142.351L78.5229 141.924L77.2913 92.6683C77.2074 89.2794 76.5992 85.6133 75.3219 83.3439C74.0815 81.1408 71.4769 79.0771 68.5766 77.479L48.1381 67.2489L48.1293 67.2448C46.7608 66.5539 44.6559 65.2704 42.9369 63.9809C42.0924 63.3473 41.2047 62.612 40.5363 61.8646C40.2153 61.5058 39.7997 60.9847 39.5032 60.3377C39.2289 59.739 38.7692 58.3669 39.4749 56.8851L39.5557 56.7246C40.4128 55.1197 41.9882 54.9244 42.3783 54.8848Z" fill="#0095FF"/>
<path fill-rule="evenodd" clip-rule="evenodd" d="M80.2233 13.9968C96.3083 11.1379 105.541 9.44528 114.863 10.1657C124.186 10.8864 133.067 13.9798 148.551 19.2786L150.432 19.9223C158.666 22.7403 165.431 25.0428 170.692 27.5622C176.118 30.161 180.652 33.3045 184.055 38.2177C187.467 43.1433 188.891 48.616 189.514 54.7911C190.117 60.7575 190.026 68.1173 189.931 77.0416L189.466 120.724C189.364 130.335 189.293 138.244 188.482 144.598C187.643 151.171 185.925 156.943 181.994 161.962C178.073 166.966 172.992 169.892 166.977 172.113C161.141 174.267 153.673 176.011 144.559 178.156L114.832 185.151C99.7412 188.702 90.3388 191.041 80.9215 189.536C71.4981 188.031 63.222 182.865 49.8958 174.775L39.6834 168.576C33.9377 165.088 29.1837 162.211 25.4892 159.448C21.6705 156.592 18.5169 153.529 16.1634 149.413C13.8058 145.289 12.7278 140.942 12.1529 136.088C11.5981 131.404 11.4629 125.711 11.2899 118.851L10.2634 78.173C9.99917 67.697 9.76848 59.1028 10.4363 52.2206C11.1263 45.1098 12.845 38.8612 17.1188 33.4988C21.3794 28.1533 26.9556 25.2244 33.5421 23.1537C39.9411 21.1419 48.147 19.6982 58.192 17.9128L80.2233 13.9968ZM113.612 30.448C106.849 30.1922 99.991 31.5721 83.9852 34.9034L62.9621 39.2784C53.0216 41.3473 46.2058 42.7792 41.1155 44.5049C36.2018 46.1709 33.7665 47.841 32.1182 49.8574C30.494 51.8446 29.3957 54.4558 28.8108 59.4219C28.1987 64.6193 28.2399 71.4103 28.3225 81.4113L28.8345 118.782L28.8346 118.801C28.889 125.385 28.9335 129.788 29.2932 133.209C29.6358 136.466 30.2164 138.241 31.0326 139.633C31.8543 141.035 33.1304 142.416 35.8049 144.274C37.9007 145.73 40.5557 147.284 44.1314 149.292L48.0285 151.465L57.6416 156.808C71.1151 164.296 76.2741 167.027 81.9518 167.696C87.6608 168.368 93.6009 166.922 109.076 162.846L137.472 155.367C146.51 152.987 152.687 151.348 157.307 149.54L158.116 149.215C162.036 147.594 164.087 146.059 165.517 144.281C167.021 142.41 168.075 139.976 168.755 135.417C169.468 130.638 169.661 124.409 169.926 115.202L170.882 75.0317L170.882 75.0233L170.883 75.0138C171.129 66.4559 171.283 60.6879 170.899 56.2681C170.555 52.3138 169.824 50.1481 168.765 48.5412L168.547 48.2267C167.356 46.5671 165.512 45.0801 161.604 43.4012C158.556 42.0919 154.702 40.8441 149.549 39.2918L143.945 37.6245L142.167 37.0987C126.897 32.5841 120.364 30.7035 113.612 30.448Z" fill="#0095FF"/>
<path d="M121.901 126.513L122.882 107.45C123.095 104.269 120.616 102.498 115.764 103.829C110.913 105.16 110.208 108.786 110.164 111.82C110.164 111.82 110.199 121.11 109.927 128.029C109.99 129.091 109.775 131.399 110.131 132.387C110.486 133.374 111.142 134.926 112.467 135.161C114.245 135.476 118.495 134.433 120.044 132.999C121.773 131.398 121.769 127.797 121.901 126.513Z" fill="#0095FF"/>
<path d="M149.602 119.224L150.583 100.161C150.797 96.98 148.317 95.2092 143.465 96.5402C138.614 97.8712 137.909 101.497 137.865 104.531C137.865 104.531 137.9 113.821 137.628 120.74C137.691 121.803 137.476 124.111 137.832 125.098C138.187 126.086 138.843 127.638 140.168 127.872C141.946 128.187 146.197 127.144 147.745 125.711C149.474 124.11 149.47 120.508 149.602 119.224Z" fill="#0095FF"/>
</svg>
