<svg width="490" height="200" viewBox="0 0 490 200" fill="none" xmlns="http://www.w3.org/2000/svg">
<path d="M42.3783 54.8848C43.015 54.8203 43.6547 54.8969 44.1513 54.9816C45.1883 55.1586 46.4168 55.522 47.5603 55.9009C49.7087 56.6126 52.4553 57.7019 53.3621 58.027L75.4482 64.7181L75.5853 64.7758C80.1243 66.6849 85.5974 67.6633 88.037 67.8208C90.4266 67.9751 95.26 67.6715 100.087 66.402L100.121 66.3922L100.155 66.3846L147.988 55.0673C149.665 54.6503 151.62 54.4419 153.298 54.5997C154.122 54.6773 155.1 54.8617 155.984 55.3172C156.809 55.7426 157.993 56.6641 158.343 58.3475L158.403 58.694L158.434 59.0385C158.521 60.7236 157.593 61.9051 157.116 62.4179C156.522 63.0557 155.79 63.5618 155.155 63.9472C153.855 64.7361 152.232 65.4471 150.906 65.9961L150.78 66.0477L150.651 66.0878L109.847 78.6234C107.31 79.4724 105.009 80.4382 103.164 81.5172C101.272 82.6231 100.117 83.6995 99.5569 84.6371C98.8678 85.7915 98.2306 87.6035 97.6869 89.999C97.1538 92.3481 96.7577 95.0419 96.4508 97.8156L96.449 97.8314L96.4472 97.8461L91.1052 142.512L91.1062 142.513C91.0137 143.349 90.7894 145.472 90.1504 147.392C89.8333 148.345 89.3287 149.52 88.4867 150.482C87.5662 151.533 86.1893 152.364 84.4409 152.231C81.0216 151.968 79.6995 148.618 79.2304 146.983C78.7386 145.268 78.5844 143.455 78.5369 142.351L78.5229 141.924L77.2913 92.6683C77.2074 89.2794 76.5992 85.6133 75.3219 83.3439C74.0815 81.1408 71.4769 79.0771 68.5766 77.479L48.1381 67.2489L48.1293 67.2448C46.7608 66.5539 44.6559 65.2704 42.9369 63.9809C42.0924 63.3473 41.2047 62.612 40.5363 61.8646C40.2153 61.5058 39.7997 60.9847 39.5032 60.3377C39.2289 59.739 38.7692 58.3669 39.4749 56.8851L39.5557 56.7246C40.4128 55.1197 41.9882 54.9244 42.3783 54.8848Z" fill="#FCFDFF"/>
<path fill-rule="evenodd" clip-rule="evenodd" d="M80.2233 13.9968C96.3083 11.1379 105.541 9.44528 114.863 10.1657C124.186 10.8864 133.067 13.9798 148.551 19.2786L150.432 19.9223C158.666 22.7403 165.431 25.0428 170.692 27.5622C176.118 30.161 180.652 33.3045 184.055 38.2177C187.467 43.1433 188.891 48.616 189.514 54.7911C190.117 60.7575 190.026 68.1173 189.931 77.0416L189.466 120.724C189.364 130.335 189.293 138.244 188.482 144.598C187.643 151.171 185.925 156.943 181.994 161.962C178.073 166.966 172.992 169.892 166.977 172.113C161.141 174.267 153.673 176.011 144.559 178.156L114.832 185.151C99.7412 188.702 90.3388 191.041 80.9215 189.536C71.4981 188.031 63.222 182.865 49.8958 174.775L39.6834 168.576C33.9377 165.088 29.1837 162.211 25.4892 159.448C21.6705 156.592 18.5169 153.529 16.1634 149.413C13.8058 145.289 12.7278 140.942 12.1529 136.088C11.5981 131.404 11.4629 125.711 11.2899 118.851L10.2634 78.173C9.99917 67.697 9.76848 59.1028 10.4363 52.2206C11.1263 45.1098 12.845 38.8612 17.1188 33.4988C21.3794 28.1533 26.9556 25.2244 33.5421 23.1537C39.9411 21.1419 48.147 19.6982 58.192 17.9128L80.2233 13.9968ZM113.612 30.448C106.849 30.1922 99.991 31.5721 83.9852 34.9034L62.9621 39.2784C53.0216 41.3473 46.2058 42.7792 41.1155 44.5049C36.2018 46.1709 33.7665 47.841 32.1182 49.8574C30.494 51.8446 29.3957 54.4558 28.8108 59.4219C28.1987 64.6193 28.2399 71.4103 28.3225 81.4113L28.8345 118.782L28.8346 118.801C28.889 125.385 28.9335 129.788 29.2932 133.209C29.6358 136.466 30.2164 138.241 31.0326 139.633C31.8543 141.035 33.1304 142.416 35.8049 144.274C37.9007 145.73 40.5557 147.284 44.1314 149.292L48.0285 151.465L57.6416 156.808C71.1151 164.296 76.2741 167.027 81.9518 167.696C87.6608 168.368 93.6009 166.922 109.076 162.846L137.472 155.367C146.51 152.987 152.687 151.348 157.307 149.54L158.116 149.215C162.036 147.594 164.087 146.059 165.517 144.281C167.021 142.41 168.075 139.976 168.755 135.417C169.468 130.638 169.661 124.409 169.926 115.202L170.882 75.0317L170.882 75.0233L170.883 75.0138C171.129 66.4559 171.283 60.6879 170.899 56.2681C170.555 52.3138 169.824 50.1481 168.765 48.5412L168.547 48.2267C167.356 46.5671 165.512 45.0801 161.604 43.4012C158.556 42.0919 154.702 40.8441 149.549 39.2918L143.945 37.6245L142.167 37.0987C126.897 32.5841 120.364 30.7035 113.612 30.448Z" fill="#FCFDFF"/>
<path d="M121.901 126.513L122.882 107.45C123.095 104.269 120.616 102.498 115.764 103.829C110.913 105.16 110.208 108.786 110.164 111.82C110.164 111.82 110.199 121.11 109.927 128.029C109.99 129.091 109.775 131.399 110.131 132.387C110.486 133.374 111.142 134.926 112.467 135.161C114.245 135.476 118.495 134.433 120.044 132.999C121.773 131.398 121.769 127.797 121.901 126.513Z" fill="#FCFDFF"/>
<path d="M149.602 119.224L150.583 100.161C150.797 96.98 148.317 95.2092 143.465 96.5402C138.614 97.8712 137.909 101.497 137.865 104.531C137.865 104.531 137.9 113.821 137.628 120.74C137.691 121.803 137.476 124.111 137.832 125.098C138.187 126.086 138.843 127.638 140.168 127.872C141.946 128.187 146.197 127.144 147.745 125.711C149.474 124.11 149.47 120.508 149.602 119.224Z" fill="#FCFDFF"/>
<path d="M239.857 130.832C234.714 130.832 230.347 130.066 226.755 128.533C223.163 127 220.184 125.023 217.816 122.602C215.531 120.101 213.735 117.438 212.429 114.614C211.122 111.71 210.224 108.926 209.735 106.263C209.245 103.52 209 101.14 209 99.1226C209 95.2497 209.531 91.2557 210.592 87.1408C211.735 83.0258 213.612 79.1932 216.224 75.643C218.918 72.0929 222.551 69.2285 227.122 67.05C231.776 64.8715 237.612 63.7822 244.633 63.7822C246.755 63.7822 248.714 63.9436 250.51 64.2664C251.504 64.445 252.46 64.6606 253.379 64.9133C254.702 65.2772 255.468 65.7751 257.095 63.9846L258.084 62.9648C260.259 60.7225 263.32 59.5366 266.457 59.721C272.091 60.052 276.503 64.644 276.506 70.2222C276.507 73.0175 276.498 75.8865 276.47 78.0636C276.388 84.1151 276.347 90.9733 276.347 98.6385C276.347 102.592 276.347 106.747 276.347 111.104C276.429 115.381 276.47 120.061 276.47 125.144C276.47 132.083 275.531 137.771 273.653 142.209C271.776 146.647 269.367 150.076 266.429 152.496C263.49 154.917 260.429 156.652 257.245 157.7C254.143 158.83 251.245 159.476 248.551 159.637C245.939 159.879 243.98 160 242.674 160C239.49 160 235.98 159.637 232.143 158.911C228.306 158.265 223.342 156.056 220.685 154.597C219.69 154.051 217.907 152.751 216.065 151.339C211.906 148.15 208.813 143.001 211.772 138.699C212.394 137.794 213.124 137.015 213.882 136.351C217.006 133.611 221.709 133.836 225.163 136.157C227.204 137.61 229.571 138.739 232.265 139.546C234.959 140.434 238.306 140.878 242.306 140.878C246.388 140.878 249.408 140.151 251.367 138.699C253.327 137.327 254.592 135.472 255.163 133.132C255.496 131.981 255.755 130.767 255.939 129.491C256.168 127.908 256.282 127.117 255.798 126.784C255.313 126.451 254.529 126.872 252.961 127.714C251.261 128.627 249.546 129.303 247.816 129.743C244.959 130.469 242.306 130.832 239.857 130.832ZM227.367 97.4282C227.367 102.027 228.633 105.658 231.163 108.321C233.776 110.983 237.327 112.315 241.816 112.315C246.399 112.315 250.135 110.406 253.026 106.59C253.984 105.325 254.463 104.692 255.197 102.425C255.932 100.158 256.103 99.3786 256.035 96.434C256.02 95.7484 256.001 95.06 255.98 94.3689C255.98 94.0106 255.979 93.6537 255.978 93.2981C255.964 89.8491 255.57 87.4343 254.626 85.839C253.683 84.2437 251.685 83.3033 249.305 82.7872C247.769 82.4543 245.453 82.422 243.762 82.422C238.538 82.422 235 83.9133 231.898 86.6566C228.878 89.3193 227.367 92.9098 227.367 97.4282Z" fill="#FCFDFF"/>
<path d="M320.412 139.909C312.576 139.909 305.678 138.376 299.719 135.31C293.841 132.325 289.229 128.129 285.882 122.723C282.616 117.317 280.984 111.064 280.984 103.964C280.984 99.6874 281.719 95.2093 283.188 90.5296C284.657 85.7691 287.025 81.3314 290.29 77.2164C293.555 73.1014 297.841 69.753 303.147 67.171C308.535 64.5891 315.066 63.2981 322.739 63.2981C328.29 63.2981 332.943 63.9033 336.698 65.1136C340.535 66.3238 343.637 67.8972 346.004 69.8337C348.453 71.7701 350.29 73.8276 351.515 76.0061C352.821 78.1846 353.678 80.2825 354.086 82.2996C354.576 84.2361 354.821 85.8498 354.821 87.1408C354.821 94.9673 351.474 101.019 344.78 105.295C338.168 109.491 328.78 111.589 316.617 111.589C313.841 111.589 311.188 111.468 308.657 111.225C302.187 110.607 303.268 113.945 305.372 116.176C306.556 117.431 307.937 118.484 309.514 119.334C313.106 121.19 316.821 122.118 320.657 122.118C326.208 122.118 331.106 121.15 335.351 119.213C336.616 118.612 337.86 117.918 339.081 117.131C343.788 114.096 350.42 114.378 353.628 118.938C356.234 122.642 355.517 127.719 351.818 130.365C351.044 130.919 350.248 131.478 349.433 132.042C346.249 134.302 342.331 136.157 337.678 137.61C333.025 139.143 327.27 139.909 320.412 139.909ZM323.106 81.4524C318.29 81.4524 314.045 82.6627 310.372 85.0833C308.445 86.3529 306.788 87.8333 305.4 89.5246C301.645 95.2497 305.236 95.1145 308.29 95.4918C310.331 95.6531 312.331 95.7338 314.29 95.7338C316.086 95.7338 318.127 95.5724 320.412 95.2497C322.78 94.927 325.066 94.4428 327.27 93.7973C329.555 93.1518 331.433 92.345 332.902 91.3768C334.372 90.3279 335.106 89.1176 335.106 87.7459C335.106 87.1004 334.78 86.2936 334.127 85.3253C333.474 84.3571 332.29 83.4696 330.576 82.6627C328.861 81.8559 326.372 81.4524 323.106 81.4524Z" fill="#FCFDFF"/>
<path d="M381.973 140.151C377.483 140.151 373.769 139.183 370.83 137.247C367.973 135.391 365.687 132.809 363.973 129.501C362.34 126.193 361.116 122.4 360.3 118.124C359.565 113.848 359.075 109.289 358.83 104.448C358.667 99.526 358.585 94.6041 358.585 89.6823C358.585 85.4059 358.708 80.7262 358.953 75.643C359.197 70.4791 359.483 65.2749 359.81 60.0303C360.218 54.705 360.626 49.7025 361.034 45.0227C361.232 43.13 361.424 41.3363 361.608 39.6415C362.071 35.3984 364.801 31.735 368.746 30.0005L369.161 29.818C370.931 29.0398 372.898 28.8098 374.803 29.1583C380.235 30.1522 383.985 35.1044 383.409 40.5352C383.154 42.9376 382.899 45.3262 382.708 47.0802C382.136 52.2441 381.647 57.4887 381.238 62.8139C380.912 68.1392 380.626 73.061 380.381 77.5794C380.218 82.0978 380.136 85.6884 380.136 88.351C380.136 95.6934 380.259 101.462 380.504 105.658C380.83 109.854 381.279 112.839 381.851 114.614C382.504 116.309 383.361 117.156 384.422 117.156C385.489 117.156 386.629 116.655 387.841 115.652C388.418 115.176 388.706 114.937 388.829 114.84C389.353 114.426 390.272 113.818 390.861 113.497C390.998 113.422 389.747 114.07 390.248 113.811C393.797 111.974 396.941 113.301 398.995 114.792C400.837 116.128 401.744 118.298 402.231 120.504C403.414 125.867 401.774 131.562 397.412 134.958C396.591 135.596 395.791 136.181 395.075 136.641C391.565 138.981 387.198 140.151 381.973 140.151Z" fill="#FCFDFF"/>
<path d="M441.184 140.151C434.653 140.151 428.939 139.102 424.041 137.005C419.224 134.907 415.224 132.042 412.041 128.412C408.857 124.7 406.49 120.464 404.939 115.704C403.388 110.943 402.612 105.941 402.612 100.696C402.612 95.3707 403.551 90.4488 405.428 85.9304C407.388 81.3314 410.041 77.3374 413.388 73.9486C416.816 70.5598 420.816 67.9375 425.388 66.0817C429.959 64.1453 434.939 63.1771 440.326 63.1771C445.959 63.1771 451.184 64.1453 456 66.0817C460.816 68.0182 465.02 70.7212 468.612 74.1907C472.204 77.6602 474.98 81.7348 476.939 86.4146C478.98 91.0943 480 96.1776 480 101.664C480 113.848 476.612 123.328 469.837 130.106C463.061 136.803 453.51 140.151 441.184 140.151ZM441.061 120.545C447.02 120.545 451.551 118.891 454.653 115.582C457.837 112.274 459.428 107.514 459.428 101.301C459.428 95.7338 457.714 91.2557 454.286 87.8669C450.857 84.4781 446.367 82.7837 440.816 82.7837C437.469 82.7837 434.408 83.6712 431.632 85.4463C428.857 87.1407 426.612 89.4403 424.898 92.345C423.265 95.169 422.449 98.3157 422.449 101.785C422.449 104.851 423.061 107.837 424.286 110.741C425.592 113.646 427.632 116.026 430.408 117.882C433.184 119.657 436.735 120.545 441.061 120.545Z" fill="#FCFDFF"/>
</svg>
